<?xml version="1.0" encoding="UTF-8"?>
<svg width="32px" height="32px" viewBox="0 0 32 32" version="1.1" xmlns="http://www.w3.org/2000/svg" xmlns:xlink="http://www.w3.org/1999/xlink">
    <!-- Generator: Sketch 51.2 (57519) - http://www.bohemiancoding.com/sketch -->
    <title>github</title>
    <desc>Created with Sketch.</desc>
    <defs></defs>
    <g id="Page-1" stroke="none" stroke-width="1" fill="none" fill-rule="evenodd">
        <g id="github" fill="#D4D6D7" fill-rule="nonzero">
            <path d="M18.5467594,27.4098702 C18.4758695,27.3652287 18.4141698,27.3140223 18.3590336,27.2562509 C18.1424272,27.0277915 18.0702248,26.7363089 18.0702248,26.4973456 C18.0702248,26.11658 18.0833526,24.8653055 18.0833526,23.3133571 C18.0833526,22.3325573 17.7564738,21.7758519 17.4807928,21.5329498 C17.1631034,21.2506579 17.328512,20.722838 17.7499103,20.6742576 C20.1260164,20.3985311 22.4798062,19.5621597 22.4798062,15.4301957 C22.4798062,14.2878994 22.0846634,13.3661835 21.4400952,12.6466678 C21.3153824,12.5061783 21.2799383,12.3079178 21.3495148,12.134604 C21.4269682,11.9415952 21.7092127,11.1144144 21.4059636,9.94191958 L21.3298227,9.71345984 C20.959623,9.74497123 20.1640872,9.93535409 18.8670739,10.8360621 C18.7462996,10.9214056 18.5940188,10.9463523 18.4522399,10.9056503 C17.598942,10.6640612 16.6760677,10.5432666 15.7545059,10.539327 C14.8395076,10.5432666 13.9192583,10.6627482 13.0633354,10.9056503 C12.9215565,10.9463523 12.7692757,10.9214056 12.6485014,10.837375 C11.3475496,9.93535409 10.5520139,9.74497123 10.1844392,9.71345984 L10.1109243,9.94191958 C9.80898847,11.1144144 10.0899197,11.9429082 10.167373,12.1385428 C10.2343244,12.3105437 10.1988795,12.507492 10.0754793,12.6453549 C9.43222442,13.3661835 9.03839417,14.2878994 9.03839417,15.4301957 C9.03839417,19.5345871 11.3685542,20.4037829 13.7525372,20.6873878 C14.1726222,20.7372811 14.3380308,21.2637881 14.0203414,21.5447663 C13.803735,21.7364621 13.5543095,22.130358 13.4650417,22.7868502 C13.4427246,22.9522863 13.3377031,23.0954017 13.1867348,23.1663029 C12.502784,23.4879847 10.4798115,24.1471027 9.25368803,21.9990591 C9.24843707,21.9898685 9.12503689,21.7692872 8.89792858,21.5434534 L9.13028784,21.8716998 C9.28913296,22.1211666 9.44797728,22.4270923 9.59894557,22.8275529 C9.57006493,22.7238274 10.0781052,24.6565408 12.8336012,24.0420639 C13.1394754,23.9724757 13.4322227,24.2061871 13.4322227,24.5199904 C13.4348477,25.4666525 13.4492881,26.2426266 13.4492881,26.4973456 C13.4492881,26.7428739 13.3705222,27.0409214 13.1171583,27.2930145 L13.0068859,27.3849234 C12.7469585,27.5621764 12.4292691,27.6055049 12.0932009,27.5424816 L12.0249369,27.5240998 C7.33442401,25.9209453 3.96061521,21.3780172 3.96061521,16.0354823 C3.96061521,9.36945807 9.2287458,3.94026512 15.7545059,3.94026512 C22.2789527,3.94026512 27.558898,9.36814513 27.558898,16.0354823 C27.558898,21.3780172 24.1864018,25.9156934 19.4985144,27.5240998 L19.4341888,27.5411687 C19.1099359,27.6055049 18.8014358,27.5713673 18.5467594,27.4098702 Z M19.218895,26.5787507 L19.9684847,26.2872681 C23.8437702,24.5987695 26.574324,20.6519368 26.574324,16.0354823 C26.574324,9.88939955 21.7131511,4.92500373 15.7545059,4.92500373 C9.79717323,4.92500373 4.9451898,9.88808661 4.9451898,16.0354823 C4.9451898,20.6519368 7.67574322,24.6027085 11.5523416,26.2872681 L12.2993054,26.5761247 L12.4371459,26.5761247 L12.464714,26.4973456 C12.464714,26.2846421 12.4568372,25.8434791 12.4515862,25.2145594 L12.43452,25.1095206 C9.82474134,25.42595 8.9189324,23.7545202 8.70889028,23.2503344 L8.66950694,23.146608 C8.20610096,21.9347234 7.56809637,21.6642479 7.66392829,21.7115154 L7.59566447,21.6721264 C7.37380703,21.5158808 7.19264533,21.3583231 7.08106022,21.190261 C6.74499205,20.6847619 7.06399426,20.2934919 7.40793895,20.1595679 C7.66130282,20.062407 7.96980249,20.0715976 7.98161773,20.0715976 C9.4177841,20.1726973 10.1253646,21.5408275 10.1161752,21.5224463 C10.7147966,22.5702077 11.5654694,22.6306054 12.2100376,22.4743598 L12.5539818,22.3522523 L12.614369,22.0647086 C12.6695052,21.8822041 12.7351433,21.7128284 12.821786,21.5408275 L12.634061,21.5040643 C10.2960241,21.0103817 8.05382013,19.6173048 8.05382013,15.4301957 C8.05382013,14.3876861 8.32687527,13.4791005 8.80209649,12.7110043 L9.16179436,12.2304519 L9.11190911,12.0531992 C8.96487923,11.4465997 8.85592016,10.3778304 9.35870948,9.06484535 C9.41253235,8.92698174 9.52411809,8.81931736 9.66589622,8.77336283 C9.83130483,8.71821691 10.7003563,8.52783484 12.4187672,9.52438993 L13.026578,9.91172035 L14.2553265,9.65831471 C14.7515523,9.59135232 15.2530291,9.55721426 15.7531926,9.55327543 C16.2572952,9.55721426 16.7613971,9.59135232 17.2589354,9.65831471 L18.4889973,9.91172035 L19.0941822,9.52570287 C20.8112806,8.52783484 21.6829571,8.71953064 21.8496783,8.77336283 C21.9901446,8.81931736 22.1030421,8.9256688 22.1555533,9.06484535 C22.6609677,10.3765175 22.5520086,11.4452867 22.4036662,12.0545122 L22.3537809,12.2304519 L22.7134788,12.7110043 C23.1887,13.4791005 23.464381,14.3876861 23.464381,15.4301957 C23.464381,19.6448774 21.1998591,21.0130076 18.8631355,21.4948729 L18.6649078,21.5263851 L18.8014358,21.7850425 C18.968157,22.206511 19.0679275,22.7172619 19.0679275,23.3133571 C19.0679275,24.8653055 19.0547997,26.11658 19.0547997,26.4973456 L19.0771168,26.5800637 L19.218895,26.5787507 Z" id="path3698"></path>
            <path d="M0,28.6296332 L0,2.87806059 C0,1.29066202 1.28913625,-2.25871941e-06 2.87758321,-2.25871941e-06 L28.6301156,-2.25871941e-06 C30.2172494,-2.25871941e-06 31.5076984,1.29066202 31.5076984,2.87806059 L31.5076984,28.6296332 C31.5076984,30.2183448 30.2172494,31.507696 28.6301156,31.507696 L2.87758321,31.507696 C1.28913625,31.507696 0,30.2183448 0,28.6296332 Z M30.5231236,28.6296332 L30.5231236,2.87806059 C30.5231236,1.83555018 29.6724517,0.984736351 28.6301156,0.984736351 L2.87758321,0.984736351 C1.83393424,0.984736351 0.984574515,1.83555018 0.984574515,2.87806059 L0.984574515,28.6296332 C0.984574515,29.6734561 1.83393424,30.5229573 2.87758321,30.5229573 L28.6301156,30.5229573 C29.6724517,30.5229573 30.5231236,29.6734561 30.5231236,28.6296332 Z" id="path3700"></path>
        </g>
    </g>
</svg>