<?xml version="1.0" encoding="UTF-8"?>
<svg width="32px" height="32px" viewBox="0 0 32 32" version="1.1" xmlns="http://www.w3.org/2000/svg" xmlns:xlink="http://www.w3.org/1999/xlink">
    <!-- Generator: Sketch 51.2 (57519) - http://www.bohemiancoding.com/sketch -->
    <title>linkedin</title>
    <desc>Created with Sketch.</desc>
    <defs></defs>
    <g id="Page-1" stroke="none" stroke-width="1" fill="none" fill-rule="evenodd">
        <g id="linkedin" fill="#9DA1A3" fill-rule="nonzero">
            <path d="M5.86543883,24.1365989 L5.86543883,11.497806 C5.86543883,11.2273313 6.08598348,11.0054371 6.35772608,11.0054371 L10.4640586,11.0054371 C10.7344879,11.0054371 10.9563453,11.2273313 10.9563453,11.497806 L10.9563453,24.1365989 C10.9563453,24.4083867 10.7344879,24.6289682 10.4640586,24.6289682 L6.35772608,24.6289682 C6.08598348,24.6289682 5.86543883,24.4083867 5.86543883,24.1365989 Z M9.97177121,23.6442295 L9.97177121,11.9901757 L6.85001334,11.9901757 L6.85001334,23.6442295 L9.97177121,23.6442295 Z M5.62388988,7.58773704 C5.62388988,6.0620491 6.77256015,4.91318726 8.43846022,4.91318726 C10.1122368,4.91318726 11.1926437,6.07255263 11.2267753,7.58248527 C11.2267753,9.07928849 10.1069858,10.2649135 8.3898883,10.2649135 C6.7331772,10.2649135 5.62388988,9.072723 5.62388988,7.58773704 Z M10.2422013,7.59430254 C10.2198841,6.62269334 9.57006493,5.89792587 8.43846022,5.89792587 C7.28979003,5.89792587 6.6084644,6.63188394 6.6084644,7.58773704 C6.6084644,8.52783484 7.27797511,9.28017488 8.40432862,9.28017488 C9.57662842,9.28017488 10.2422013,8.52258229 10.2422013,7.59430254 Z" id="path3281"></path>
            <path d="M12.8020947,24.1365989 C12.8020947,24.123469 12.8546051,12.7924091 12.8020947,11.6356696 C12.7889669,11.3546906 13.0134502,11.1196669 13.2943821,11.1196669 L17.4886696,11.1196669 C17.7590997,11.1196669 17.980957,11.3415612 17.980957,11.6120358 L17.980957,12.0269388 L18.2028144,11.8299913 C18.8959546,11.269347 19.87134,10.8255577 21.2694356,10.8255577 C24.3294933,10.8255577 26.5900768,12.8725017 26.5900768,16.9545715 L26.5900768,24.1379118 C26.5900768,24.4096997 26.3682195,24.6302811 26.0977894,24.6302811 L21.9021894,24.6302811 C21.6304468,24.6302811 21.409902,24.4096997 21.409902,24.1379118 L21.409902,17.4377498 C21.409902,15.9186266 20.9425568,15.0980112 19.7781338,15.0980112 C18.8854527,15.0980112 18.3367165,15.6836021 18.0820401,16.3164605 C18.0111502,16.4871493 17.980957,16.7720663 17.980957,17.1436414 L17.980957,24.1379118 C17.980957,24.4096997 17.7590997,24.6302811 17.4886696,24.6302811 L13.2943821,24.6302811 C13.021327,24.6302811 12.8007822,24.4083867 12.8020947,24.1365989 Z M16.9963822,23.6455425 L16.9963822,17.1436414 C16.9963822,16.7681275 17.0200119,16.3046441 17.1722927,15.9422603 C17.5188636,15.0756904 18.3564078,14.1132718 19.7781338,14.1132718 C21.7052743,14.1132718 22.3944768,15.667846 22.3944768,17.4377498 L22.3944768,23.6455425 L25.605502,23.6455425 L25.605502,16.9545715 C25.605502,13.3530541 23.7308727,11.8102963 21.2694356,11.8102963 C20.1194529,11.8102963 19.3514845,12.1634895 18.8119377,12.6033399 L18.3459059,13.057632 L17.942887,13.6103994 C17.8667462,13.7968426 17.6908357,13.9202631 17.4663525,13.9202631 C17.1512889,13.9202631 16.9451844,13.6537272 16.9675016,13.3858784 L16.9963822,13.2650839 L16.9963822,12.1044055 L13.7958589,12.1044055 L13.7971715,12.1766197 C13.8247396,14.3588006 13.798484,21.1311763 13.7879821,23.3960756 L13.7866696,23.6455425 L16.9963822,23.6455425 Z" id="path3283"></path>
            <path d="M0,28.6296332 L0,2.87806059 C0,1.29066202 1.28913625,-2.25871941e-06 2.87758321,-2.25871941e-06 L28.6301156,-2.25871941e-06 C30.2172494,-2.25871941e-06 31.5076984,1.29066202 31.5076984,2.87806059 L31.5076984,28.6296332 C31.5076984,30.2183448 30.2172494,31.507696 28.6301156,31.507696 L2.87758321,31.507696 C1.28913625,31.507696 0,30.2183448 0,28.6296332 Z M30.5231236,28.6296332 L30.5231236,2.87806059 C30.5231236,1.83555018 29.6724517,0.984736351 28.6301156,0.984736351 L2.87758321,0.984736351 C1.83393424,0.984736351 0.984574515,1.83555018 0.984574515,2.87806059 L0.984574515,28.6296332 C0.984574515,29.6734561 1.83393424,30.5229573 2.87758321,30.5229573 L28.6301156,30.5229573 C29.6724517,30.5229573 30.5231236,29.6734561 30.5231236,28.6296332 Z" id="path3285"></path>
        </g>
    </g>
</svg>