<?xml version="1.0" encoding="UTF-8"?>
<svg width="31px" height="32px" viewBox="0 0 31 32" version="1.1" xmlns="http://www.w3.org/2000/svg" xmlns:xlink="http://www.w3.org/1999/xlink">
    <!-- Generator: Sketch 51.2 (57519) - http://www.bohemiancoding.com/sketch -->
    <title>mail</title>
    <desc>Created with Sketch.</desc>
    <defs></defs>
    <g id="Page-1" stroke="none" stroke-width="1" fill="none" fill-rule="evenodd">
        <g id="mail" fill="#9EA2A4">
            <g id="Document" transform="translate(16.000000, 16.000000) scale(-1, 1) rotate(-180.000000) translate(-16.000000, -16.000000) ">
                <g id="Spread">
                    <g id="Icon">
                        <path d="M0,2.92666667 L0,29.0773333 C0,30.6893333 1.25696,32 2.80576,32 L27.91552,32 C29.46304,32 30.72128,30.6893333 30.72128,29.0773333 L30.72128,2.92666667 C30.72128,1.31333333 29.46304,0.004 27.91552,0.004 L2.80576,0.004 C1.25696,0.004 0,1.31333333 0,2.92666667 Z M29.76128,2.92666667 L29.76128,29.0773333 C29.76128,30.136 28.93184,31 27.91552,31 L2.80576,31 C1.78816,31 0.96,30.136 0.96,29.0773333 L0.96,2.92666667 C0.96,1.86666667 1.78816,1.004 2.80576,1.004 L27.91552,1.004 C28.93184,1.004 29.76128,1.86666667 29.76128,2.92666667 Z" id="Shape"></path>
                        <path d="M3.84128,8.5 L3.84128,23.5093333 C3.84128,23.784 4.05632,24.0093333 4.32128,24.0093333 L26.40256,24.0093333 C26.66624,24.0093333 26.88256,23.784 26.88256,23.5093333 L26.88256,8.5 C26.88256,8.224 26.66624,8 26.40256,8 L4.32128,8 C4.05632,8 3.84128,8.224 3.84128,8.5 Z M25.92256,9 L25.92256,23.0093333 L4.80128,23.0093333 L4.80128,9 L25.92256,9 Z" id="Shape"></path>
                        <path d="M15.04512,13.1253333 L4.00384,23.1306667 C3.80416,23.3106667 3.78368,23.6266667 3.95776,23.836 C4.13056,24.044 4.43392,24.0653333 4.63488,23.884 L15.36128,14.1653333 L26.0864,23.884 C26.28736,24.0653333 26.59072,24.044 26.76352,23.836 C26.9376,23.6266667 26.91712,23.3106667 26.71744,23.1306667 L15.67616,13.1253333 C15.49568,12.9613333 15.2256,12.9613333 15.04512,13.1253333 Z" id="Shape"></path>
                        <path d="M4.6208,8.80666667 C4.53248,8.90933333 4.54272,9.068 4.64256,9.15866667 L12.32256,16.1933333 C12.42112,16.2853333 12.57344,16.2746667 12.66048,16.1706667 C12.7488,16.068 12.73856,15.9093333 12.63872,15.8186667 L4.95872,8.784 C4.86016,8.692 4.70784,8.70266667 4.6208,8.80666667 Z" id="Shape"></path>
                        <path d="M26.00192,8.56266667 L18.32192,15.5986667 C18.22208,15.6893333 18.21184,15.848 18.30016,15.9506667 C18.3872,16.0546667 18.53952,16.0653333 18.63808,15.9733333 L26.31808,8.93733333 C26.41792,8.84666667 26.42816,8.688 26.33984,8.58533333 C26.2528,8.48133333 26.10048,8.47066667 26.00192,8.56266667 Z" id="Shape"></path>
                    </g>
                </g>
            </g>
        </g>
    </g>
</svg>